<svg xmlns="http://www.w3.org/2000/svg" xmlns:xlink="http://www.w3.org/1999/xlink" viewBox="0 0 120 120"><defs><style>.cls-1,.cls-3{fill:#deecf9;}.cls-1,.cls-6{stroke:#68a5f9;stroke-miterlimit:10;stroke-width:0.05px;}.cls-2{fill:#f8deae;}.cls-4{clip-path:url(#clip-path);}.cls-5{fill:#eef6ff;}.cls-6{fill:none;}.cls-7{fill:#68a5f9;}.cls-8{fill:#fff;opacity:0;}</style><clipPath id="clip-path"><polygon class="cls-1" points="118 57.66 110.74 97.21 32.08 89.59 41.76 36.86 118 57.66"/></clipPath></defs><g id="图层_2" data-name="图层 2"><g id="图层_1-2" data-name="图层 1"><path class="cls-2" d="M44.81,96.72H40.87a4.49,4.49,0,0,0,.83-.08H36.58a4.11,4.11,0,0,1-4.1-4.1h0a4.11,4.11,0,0,1,3.27-4h8a4.1,4.1,0,0,0,4.09-4.1h0a4.1,4.1,0,0,0-4.09-4.09H6.1A4.1,4.1,0,0,0,2,84.43H2a4.11,4.11,0,0,0,4.1,4.1H17.94a4.11,4.11,0,0,1,4.1,4.1h0a4.1,4.1,0,0,1-4.1,4.09H15.36a4.11,4.11,0,0,0-4.1,4.1h0a4.1,4.1,0,0,0,4.1,4.09H44.81a4.1,4.1,0,0,0,4.09-4.09h0A4.1,4.1,0,0,0,44.81,96.72Z"/><path class="cls-2" d="M70.82,104.81H66.89a4.58,4.58,0,0,0,.83-.08H62.59a4.11,4.11,0,0,1-4.09-4.1h0a4.11,4.11,0,0,1,3.27-4h8a4.11,4.11,0,0,0,4.1-4.1h0a4.1,4.1,0,0,0-4.1-4.09H32.11A4.1,4.1,0,0,0,28,92.52h0a4.1,4.1,0,0,0,4.09,4.1H44a4.11,4.11,0,0,1,4.1,4.09h0a4.11,4.11,0,0,1-4.1,4.1H41.37a4.1,4.1,0,0,0-4.09,4.1h0A4.1,4.1,0,0,0,41.37,113H70.82a4.1,4.1,0,0,0,4.1-4.09h0A4.11,4.11,0,0,0,70.82,104.81Z"/><polygon class="cls-3" points="118 57.66 110.74 97.21 32.08 89.59 41.76 36.86 118 57.66"/><g class="cls-4"><rect class="cls-5" x="40.52" y="59.18" width="62.83" height="20.94" transform="translate(-9.56 127.84) rotate(-79.6)"/></g><polygon class="cls-6" points="118 57.66 110.74 97.21 32.08 89.59 41.76 36.86 118 57.66"/><circle class="cls-7" cx="73.17" cy="69.87" r="16.75"/><rect class="cls-7" x="3.41" y="59.88" width="67.02" height="6.7" rx="3.35" transform="translate(-31.93 88.13) rotate(-79.6)"/><path class="cls-7" d="M29.91,45.71l-5.76,31.4A12.12,12.12,0,0,0,28.78,89h0l9.68-52.74h0A12.13,12.13,0,0,0,29.91,45.71Z"/><path class="cls-7" d="M34.64,59.84a4.58,4.58,0,0,1-.89-.1l-16.4-3.63a4.11,4.11,0,0,1-3.14-3.2L6,11.9a4.1,4.1,0,0,1,8-1.6l7.68,38.38,13.79,3a4.1,4.1,0,0,1-.88,8.11Z"/><rect class="cls-8" width="120" height="120"/></g></g></svg>