<svg xmlns="http://www.w3.org/2000/svg" viewBox="0 0 160 160"><defs><style>.cls-1{fill:#fff;opacity:0;}.cls-2{fill:#68a5f9;}.cls-3{fill:#f4ddd3;}.cls-4{fill:#f7dfd5;}.cls-5{fill:#f9e2d9;}.cls-6{fill:#f6c470;}.cls-7{fill:#f8deae;}.cls-8{fill:#fbf6ee;}.cls-9{fill:#f37417;}.cls-10,.cls-12{fill:none;stroke-miterlimit:10;}.cls-10{stroke:#fff;stroke-width:0.12px;}.cls-11{fill:#f6e67c;}.cls-12{stroke:#68a5f9;}</style></defs><g id="图层_2" data-name="图层 2"><g id="图层_1-2" data-name="图层 1"><rect class="cls-1" width="160" height="160"/><path class="cls-2" d="M140.66,105.77a5.5,5.5,0,1,1,5.5-5.5A5.5,5.5,0,0,1,140.66,105.77Zm0-8a2.5,2.5,0,1,0,2.5,2.5A2.5,2.5,0,0,0,140.66,97.77Z"/><path class="cls-3" d="M125,84.6c-17,0-35.45-4.86-36.25-5.07a8.65,8.65,0,1,1,4.46-16.71h0c.18,0,18.09,4.78,33.11,4.47a8.65,8.65,0,0,1,.33,17.3Z"/><path class="cls-4" d="M133.16,101.32a8.49,8.49,0,0,1-2.66-.42A175.58,175.58,0,0,1,77.94,73a8.65,8.65,0,0,1,11-13.37h0a161,161,0,0,0,46.91,24.84,8.65,8.65,0,0,1-2.66,16.88Z"/><path class="cls-5" d="M102.79,74s-17.11-3.11-32.64-2.52c-11.24.44-25,8.36-27.93,2.72-3.13-6-4.41-22.19,1.15-24.77,13.72-6.39,39.43-4.9,48.72,3C93.31,61.8,102.79,74,102.79,74Z"/><rect class="cls-6" x="35.87" y="32.09" width="64.87" height="21.62"/><path class="cls-5" d="M83.73,121.31a8.65,8.65,0,0,1-4-16.35,17.3,17.3,0,0,0-7.86-32.71,8.65,8.65,0,1,1,0-17.3,34.6,34.6,0,0,1,15.75,65.41A8.72,8.72,0,0,1,83.73,121.31Z"/><path class="cls-7" d="M26.08,85a3.82,3.82,0,0,1,3.82-3.82h94.18A3.82,3.82,0,0,1,127.9,85v26.72H26.08Z"/><path class="cls-7" d="M124.08,152.48H29.9a3.82,3.82,0,0,1-3.82-3.82V111.75H127.9v36.91A3.82,3.82,0,0,1,124.08,152.48Z"/><rect class="cls-6" x="26.08" y="96.48" width="101.81" height="35.63"/><rect class="cls-8" x="36.27" y="106.66" width="20.36" height="5.09" rx="2.55"/><rect class="cls-8" x="36.27" y="88.85" width="20.36" height="2.55"/><rect class="cls-8" x="97.35" y="88.85" width="20.36" height="2.55"/><rect class="cls-8" x="97.35" y="85.03" width="20.36" height="2.55"/><rect class="cls-8" x="97.35" y="134.82" width="20.36" height="5.09"/><rect class="cls-9" x="97.35" y="121.94" width="20.36" height="10.18"/><rect class="cls-8" x="66.81" y="106.66" width="20.36" height="5.09" rx="2.55"/><rect class="cls-8" x="97.35" y="106.66" width="20.36" height="5.09" rx="2.55"/><circle class="cls-8" cx="38.81" cy="137.37" r="2.55"/><circle class="cls-10" cx="42.22" cy="137.37" r="2.55"/><path class="cls-5" d="M55.74,118.49a8.63,8.63,0,0,1-5.39-1.88A34.6,34.6,0,0,1,71.92,55a8.65,8.65,0,0,1,0,17.3,17.3,17.3,0,0,0-10.78,30.83,8.65,8.65,0,0,1-5.4,15.41Z"/><circle class="cls-11" cx="88.83" cy="43.84" r="5.41"/><path class="cls-6" d="M29.22,69.94h-1v-1a1.5,1.5,0,0,0-3,0v1h-1a1.5,1.5,0,0,0-1.5,1.5h0a1.5,1.5,0,0,0,1.5,1.5h1v1a1.5,1.5,0,0,0,3,0v-1h1a1.5,1.5,0,0,0,1.5-1.5h0A1.5,1.5,0,0,0,29.22,69.94Z"/><path class="cls-2" d="M16.8,144.32h-1v-1a1.5,1.5,0,0,0-3,0v1h-1a1.5,1.5,0,0,0-1.5,1.5h0a1.5,1.5,0,0,0,1.5,1.5h1v1a1.5,1.5,0,0,0,3,0v-1h1a1.5,1.5,0,0,0,1.5-1.5h0A1.5,1.5,0,0,0,16.8,144.32Z"/><rect class="cls-2" x="25.05" y="0.01" width="86.49" height="34.6"/><circle class="cls-12" cx="22.72" cy="56.2" r="5.5"/><circle class="cls-7" cx="10.3" cy="51.75" r="2.5"/><circle class="cls-9" cx="131.9" cy="15.48" r="4"/><circle class="cls-9" cx="138.7" cy="129.12" r="3"/></g></g></svg>